# xmcd CD database file
#
# Track frame offsets:
#	150
#	14703
#	28945
#	44420
#	60115
#	78462
#	95137
#	110273
#	131433
#	148703
#	162158
#	178455
#	193853
#	210633
#	235839
#
# Disc length: 3159 seconds
#
# Revision: 0
# Processed by: cddbd v1.5.2PL0 Copyright (c) Steve Scherf et al.
# Submitted via: CDex 1.51
#
DISCID=d70c550f
DTITLE=Chaparrall - Vento
DYEAR=2001
DGENRE=Country
TTITLE0=E o vento te levou
TTITLE1=Kid lampião
TTITLE2=Caso marcado
TTITLE3=O tempo volta atrás
TTITLE4=Beija eu, beijo seu
TTITLE5=Cachaça
TTITLE6=Tudo pode mudar
TTITLE7=Vem andar comigo
TTITLE8=Lado errado
TTITLE9=Tim tim
TTITLE10=Dança do cowboy
TTITLE11=Quem é você na noite
TTITLE12=Voltar pra mim
TTITLE13=Voltar pra mim
TTITLE14=Extra
EXTD=YEAR: 2001
EXTT0=
EXTT1=
EXTT2=
EXTT3=
EXTT4=
EXTT5=
EXTT6=
EXTT7=
EXTT8=
EXTT9=
EXTT10=
EXTT11=
EXTT12=
EXTT13=
EXTT14=
PLAYORDER=
